<?xml version="1.0" standalone="no"?>
<!DOCTYPE svg PUBLIC "-//W3C//DTD SVG 20010904//EN"
 "http://www.w3.org/TR/2001/REC-SVG-20010904/DTD/svg10.dtd">
<svg version="1.0" xmlns="http://www.w3.org/2000/svg"
 width="96.000000pt" height="96.000000pt" viewBox="0 0 96.000000 96.000000"
 preserveAspectRatio="xMidYMid meet">
<metadata>
Created by potrace 1.16, written by Peter Selinger 2001-2019
</metadata>
<g transform="translate(0.000000,96.000000) scale(0.100000,-0.100000)"
fill="#000000" stroke="none">
<path d="M343 854 c-13 -13 -23 -30 -23 -39 0 -11 -10 -15 -35 -15 -49 0 -85
-36 -85 -85 0 -25 -4 -35 -15 -35 -30 0 -65 -47 -65 -85 0 -22 -8 -47 -20 -62
-22 -29 -26 -83 -8 -116 6 -12 10 -40 9 -62 -2 -29 4 -49 18 -67 12 -14 21
-38 21 -53 0 -35 41 -75 79 -75 21 0 32 -6 36 -21 17 -52 120 -75 190 -42 33
16 37 16 70 0 70 -33 173 -10 190 42 4 15 15 21 36 21 38 0 79 40 79 75 0 15
9 39 21 53 14 18 20 38 18 67 -1 22 3 50 9 62 18 33 14 87 -8 116 -12 15 -20
40 -20 62 0 38 -35 85 -65 85 -11 0 -15 10 -15 35 0 49 -36 85 -85 85 -25 0
-35 4 -35 15 0 9 -10 26 -23 39 -22 22 -31 23 -137 23 -106 0 -115 -1 -137
-23z m-48 -264 c3 -5 28 -10 56 -10 l49 0 0 -48 c0 -26 5 -53 11 -59 6 -6 9
-23 7 -39 -3 -26 -7 -29 -38 -29 -31 0 -35 3 -38 29 -2 16 1 33 7 39 6 6 11
24 11 39 0 24 -4 28 -28 28 -15 0 -33 -5 -39 -11 -6 -6 -23 -9 -39 -7 -30 3
-43 31 -30 64 6 16 62 19 71 4z m440 -30 c0 -31 -3 -35 -29 -38 -16 -2 -33 1
-39 7 -6 6 -24 11 -39 11 -24 0 -28 -4 -28 -28 0 -15 5 -33 11 -39 6 -6 9 -23
7 -39 -3 -26 -7 -29 -38 -29 -31 0 -35 3 -38 29 -2 16 1 33 7 39 6 6 11 33 11
59 l0 48 49 0 c28 0 53 5 56 11 4 5 21 9 38 7 29 -3 32 -6 32 -38z m-477 -134
c2 -16 -1 -33 -7 -39 -6 -6 -11 -19 -11 -29 0 -16 10 -18 80 -18 l80 0 0 -38
c0 -21 5 -43 11 -49 6 -6 9 -23 7 -39 -3 -26 -7 -29 -38 -29 -31 0 -35 3 -38
29 -2 16 1 33 7 39 6 6 11 19 11 29 0 16 -10 18 -80 18 l-80 0 0 39 c0 22 -4
43 -10 46 -11 7 -14 58 -3 69 4 4 21 6 38 4 25 -2 31 -8 33 -32z m520 0 c2
-16 -1 -33 -7 -39 -6 -6 -11 -28 -11 -49 l0 -38 -80 0 c-70 0 -80 -2 -80 -18
0 -10 5 -23 11 -29 6 -6 9 -23 7 -39 -3 -26 -7 -29 -38 -29 -31 0 -35 3 -38
29 -2 16 1 33 7 39 6 6 11 28 11 49 l0 38 80 0 c73 0 80 2 80 19 0 11 -4 23
-10 26 -11 7 -14 58 -3 69 4 4 21 6 38 4 25 -2 31 -8 33 -32z"/>
</g>
</svg>
